# xmcd CD database file
#
# Track frame offsets:
#	150
#	17620
#	29005
#	39515
#	54755
#	73235
#	83930
#	98527
#
# Disc length: 1528 seconds
#
# Revision: 0
# Processed by: cddbd v1.4PL0 Copyright (c) Steve Scherf et al.
# Submitted via: CDex 1.51
#
DISCID=5d05f608
DTITLE=Luz De Gas - Diversos - Nadal 1996
DYEAR=1996
DGENRE=Jazz
TTITLE0=Cafe Soul - Happy Day
TTITLE1=Frank Mercader - What A Merry Christmas This Could Be
TTITLE2=Gemma Recoder - Navidades Blancas 
TTITLE3=La Vella Dixieland - Idaho
TTITLE4=Lucrecia - Bon Nadal
TTITLE5=Miquel Plana i Gina Plana - Jingle Bells
TTITLE6=Mónica Green - Silent Night
TTITLE7=Pols - Die Fledermaus
EXTD=YEAR: 1996
EXTT0=
EXTT1=
EXTT2=
EXTT3=
EXTT4=
EXTT5=
EXTT6=
EXTT7=
PLAYORDER=
